<svg width="216px" height="102px" viewBox="0 0 216 102" version="1.1" xmlns="http://www.w3.org/2000/svg" xmlns:xlink="http://www.w3.org/1999/xlink">
    <g id="Page-1" stroke="none" stroke-width="1" fill="none" fill-rule="evenodd">
        <g id="Card---Messages" transform="translate(-92.000000, -97.000000)">
            <g id="NoMessages" transform="translate(75.000000, 50.000000)">
                <path d="M154,134 L63,134 C59.1340068,134 56,130.865993 56,127 C56,123.134007 59.1340068,120 63,120 L24,120 C20.1340068,120 17,116.865993 17,113 C17,109.134007 20.1340068,106 24,106 L64,106 C67.8659932,106 71,102.865993 71,99 C71,95.1340068 67.8659932,92 64,92 L39,92 C35.1340068,92 32,88.8659932 32,85 C32,81.1340068 35.1340068,78 39,78 L79,78 C75.1340068,78 72,74.8659932 72,71 C72,67.1340068 75.1340068,64 79,64 L136,64 C139.865993,64 143,67.1340068 143,71 C143,74.8659932 139.865993,78 136,78 L200,78 C203.865993,78 207,81.1340068 207,85 C207,88.8659932 203.865993,92 200,92 L222,92 C225.865993,92 229,95.1340068 229,99 C229,102.865993 225.865993,106 222,106 L203,106 C199.134007,106 196,109.134007 196,113 C196,116.865993 199.134007,120 203,120 L209,120 C212.865993,120 216,123.134007 216,127 C216,130.865993 212.865993,134 209,134 L157,134 C156.485125,134 155.983234,133.944412 155.5,133.83891 C155.016766,133.944412 154.514875,134 154,134 Z M226,134 C222.134007,134 219,130.865993 219,127 C219,123.134007 222.134007,120 226,120 C229.865993,120 233,123.134007 233,127 C233,130.865993 229.865993,134 226,134 Z" id="Background" fill="#F3F7FF" fill-rule="evenodd"></path>
                <path d="M168.576729,126.074785 C166.143247,128.03423 163.487817,129.809703 160.644109,131.373655 L160.808643,145.457033 C160.821546,146.561528 159.936637,147.467357 158.832143,147.480398 C158.383016,147.485508 157.945197,147.339421 157.58921,147.065532 L144.92645,137.323073 C140.179952,138.415596 135.17339,139 130,139 C99.6243388,139 75,118.852814 75,94 C75,69.1471863 99.6243388,49 130,49 C160.375661,49 185,69.1471863 185,94 C185,100.878743 183.113609,107.397004 179.740995,113.227372 C179.118982,114.302669 178.446416,115.354568 177.725808,116.381015 M175.192922,119.654131 C174.279077,120.729775 173.309337,121.771242 172.287144,122.775716" id="Shape" stroke="#75A4FE" stroke-width="2.5" fill="#FFFFFF" fill-rule="evenodd" stroke-linecap="round"></path>
                <path d="M110,100 C106.686292,100 104,97.3137085 104,94 C104,90.6862915 106.686292,88 110,88 C113.313708,88 116,90.6862915 116,94 C116,97.3137085 113.313708,100 110,100 Z M129,100 C125.686292,100 123,97.3137085 123,94 C123,90.6862915 125.686292,88 129,88 C132.313708,88 135,90.6862915 135,94 C135,97.3137085 132.313708,100 129,100 Z M148,100 C144.686292,100 142,97.3137085 142,94 C142,90.6862915 144.686292,88 148,88 C151.313708,88 154,90.6862915 154,94 C154,97.3137085 151.313708,100 148,100 Z" id="Shape" stroke="#75A4FE" stroke-width="2.5" fill="#E8F0FE" fill-rule="evenodd"></path>
                <path d="M89.6621124,79.3111186 C88.7541174,80.8430522 87.967234,82.432891 87.3117686,84.0721208" id="Line" stroke="#A4C3FE" stroke-width="2.5" stroke-linecap="round"></path>
                <path d="M108.022,63.0732169 C101.469286,66.2005389 95.9371076,70.6243741 91.9392765,75.920269" id="Line" stroke="#A4C3FE" stroke-width="2.5" stroke-linecap="round"></path>
            </g>
        </g>
    </g>
</svg>