
<svg width="300px" height="300px" viewBox="0 0 300 300" version="1.1" xmlns="http://www.w3.org/2000/svg" xmlns:xlink="http://www.w3.org/1999/xlink">
    <defs>
        <linearGradient x1="50%" y1="0%" x2="50%" y2="100%" id="linearGradient-1">
            <stop stop-color="#806A6A" offset="0%"></stop>
            <stop stop-color="#665654" offset="100%"></stop>
        </linearGradient>
        <circle id="path-2" cx="150" cy="150" r="150"></circle>
        <linearGradient x1="50%" y1="0%" x2="50%" y2="100%" id="linearGradient-4">
            <stop stop-color="#1D0024" offset="0%"></stop>
            <stop stop-color="#100014" offset="100%"></stop>
        </linearGradient>
        <linearGradient x1="50%" y1="0%" x2="50%" y2="100%" id="linearGradient-5">
            <stop stop-color="#1D0024" offset="0%"></stop>
            <stop stop-color="#100014" offset="100%"></stop>
        </linearGradient>
        <linearGradient x1="50%" y1="0%" x2="50%" y2="100%" id="linearGradient-6">
            <stop stop-color="#F7B186" offset="0%"></stop>
            <stop stop-color="#FFC299" offset="100%"></stop>
        </linearGradient>
        <linearGradient x1="50%" y1="100%" x2="50%" y2="0%" id="linearGradient-7">
            <stop stop-color="#FCF2EB" offset="0%"></stop>
            <stop stop-color="#FFF9F5" offset="100%"></stop>
        </linearGradient>
        <linearGradient x1="50%" y1="0%" x2="50%" y2="100%" id="linearGradient-8">
            <stop stop-color="#1D0024" offset="0%"></stop>
            <stop stop-color="#100014" offset="100%"></stop>
        </linearGradient>
    </defs>
    <g id="Page-1" stroke="none" stroke-width="1" fill="none" fill-rule="evenodd">
        <g id="User-06b">
            <mask id="mask-3" fill="white">
                <use xlink:href="#path-2"></use>
            </mask>
            <use id="Mask" fill="url(#linearGradient-1)" fill-rule="nonzero" xlink:href="#path-2"></use>
            <path d="M220.46169,49.7049654 C224.46169,32.2049654 205.494594,18.7758897 185.96169,27.9946888 C139.96169,49.7049654 166.654227,82.2049654 183.154227,78.7049654 C199.654227,75.2049654 216.46169,67.2049654 220.46169,49.7049654 Z" id="bun" fill="url(#linearGradient-4)" fill-rule="nonzero" mask="url(#mask-3)" transform="translate(190.662980, 51.982910) scale(-1, 1) translate(-190.662980, -51.982910) "></path>
            <path d="M172,160 C150.516501,170.320504 147.382731,169.767689 100,131 C28.5,72.5 96,19 168.5,47.5 C247,82 220.70033,136.604744 172,160 Z" id="hair" fill="url(#linearGradient-5)" fill-rule="nonzero" mask="url(#mask-3)"></path>
            <path d="M174,201 C166.666667,217 157.333333,225 150,225 C142.666667,225 133.333333,217 126,201 L126,181 C123.824928,181.063929 121.991595,181.063929 120.5,181 C97.1106912,179.997553 89.2945872,142.373232 92.9651489,104.737744 C95.6532134,77.1761269 119,115 157,88.5 C155.5,117.5 168,114.5 173.5,111 C198.5,99.5 199,146.5 174.291086,142.857843 C174.301114,143.358169 174.204085,162.738888 174,201 Z" id="Mask" fill="url(#linearGradient-6)" mask="url(#mask-3)"></path>
            <path d="M126,181 C135,180.333333 146.21125,175.299807 159.63375,165.899422 C155.520908,180.063996 144.309658,188.430856 126,191 L126,181 Z" id="Path-2" fill="#FF9768" fill-rule="nonzero" mask="url(#mask-3)"></path>
            <path d="M117.732135,206.816655 C118.738045,199.872445 120.420345,196.102826 122.779035,195.507797 C126.317071,194.615254 146.994776,194.507797 147.013536,198.507797 C147.016979,199.241988 147.725154,207.111111 150.083333,207.111111 C152.441513,207.111111 153.047614,199.241561 153.051056,198.507797 C153.069816,194.507797 173.627678,194.66224 177.285556,195.507797 C179.724142,196.071502 181.401434,199.845526 182.317431,206.829869 C218.315588,223.781484 238.209777,235.875232 242,243.111111 C246.888889,252.444444 250.555556,274.111111 253,308.111111 L47,308.111111 C49.4444444,274.111111 53.1111111,252.444444 58,243.111111 C61.7885152,235.878491 81.6992268,223.780339 117.732135,206.816655 Z" id="body" fill="url(#linearGradient-7)" mask="url(#mask-3)"></path>
            <path d="M150,239 C147.790861,239 146,237.209139 146,235 C146,232.790861 147.790861,231 150,231 C152.209139,231 154,232.790861 154,235 C154,237.209139 152.209139,239 150,239 Z M150,259 C147.790861,259 146,257.209139 146,255 C146,252.790861 147.790861,251 150,251 C152.209139,251 154,252.790861 154,255 C154,257.209139 152.209139,259 150,259 Z M150,279 C147.790861,279 146,277.209139 146,275 C146,272.790861 147.790861,271 150,271 C152.209139,271 154,272.790861 154,275 C154,277.209139 152.209139,279 150,279 Z" id="buttons" fill="#664F4D" mask="url(#mask-3)"></path>
            <path d="M175.394236,79.4278153 C191.394236,119.427815 182.394236,138.927815 169.894236,162.427815 C161.560903,178.094482 162.560903,193.261149 172.894236,207.927815 C160.894236,200.261149 154.894236,187.927815 154.894236,170.927815 C154.894236,145.427815 172.894236,129.427815 157.894236,108.427815 C142.894236,87.4278153 159.394236,39.4278153 175.394236,79.4278153 Z" id="hair" fill="url(#linearGradient-8)" fill-rule="nonzero" mask="url(#mask-3)" transform="translate(167.992236, 135.963908) scale(-1, 1) translate(-167.992236, -135.963908) "></path>
        </g>
    </g>
</svg>