
<svg width="300px" height="300px" viewBox="0 0 300 300" version="1.1" xmlns="http://www.w3.org/2000/svg" xmlns:xlink="http://www.w3.org/1999/xlink">
    <defs>
        <linearGradient x1="50%" y1="0%" x2="50%" y2="100%" id="linearGradient-1">
            <stop stop-color="#1D0024" offset="0%"></stop>
            <stop stop-color="#100014" offset="100%"></stop>
        </linearGradient>
        <circle id="path-2" cx="150" cy="150" r="150"></circle>
        <linearGradient x1="50%" y1="0%" x2="50%" y2="100%" id="linearGradient-4">
            <stop stop-color="#E6864E" offset="0%"></stop>
            <stop stop-color="#EB965E" offset="100%"></stop>
        </linearGradient>
        <linearGradient x1="50%" y1="0%" x2="50%" y2="100%" id="linearGradient-5">
            <stop stop-color="#FECBB5" offset="0%"></stop>
            <stop stop-color="#FED4C4" offset="100%"></stop>
        </linearGradient>
        <path d="M195,35 C199.836862,45.7480935 203.503529,67.4147601 206,100 L0,100 C2.49647124,67.4147601 6.1631379,45.7480935 11,35 C17.3556429,20.8769917 59.2385113,4.66121732 71.5127948,0 C78.6024488,7.92791559 88.7563974,13 103,13 C117.243603,13 127.397551,7.92791559 134.487205,0 C146.761489,4.66121732 188.644357,20.8769917 195,35 Z" id="path-6"></path>
    </defs>
    <g id="Page-1" stroke="none" stroke-width="1" fill="none" fill-rule="evenodd">
        <g id="Avatars-by-Cecile-Parker" transform="translate(-100.000000, -900.000000)">
            <g id="User-03a" transform="translate(100.000000, 900.000000)">
                <mask id="mask-3" fill="white">
                    <use xlink:href="#path-2"></use>
                </mask>
                <use id="Mask" fill="url(#linearGradient-1)" fill-rule="nonzero" xlink:href="#path-2"></use>
                <path d="M64.7114128,125.778881 C-4.66255591,64.7650787 64.6226454,13.6080046 136.041785,44.6483923 C143.681931,47.9689738 165.576754,36.5133253 185.011678,50.0712833 C197.549001,58.8174202 192.328274,65.1445758 197.095574,71.8210363 C201.862874,78.4974968 221.132816,78.7897843 224.759233,95.8229528 C226.90745,105.913061 219.626716,116.148381 220.286813,123.708485 C220.946911,131.268588 228.008631,138.31103 228.008631,148.261795 C228.008631,165.950598 213.690175,180.290207 196.027465,180.290207 C195.330986,197.468483 181.242837,211.216263 163.948457,211.216263 C158.429347,211.216263 144.472114,210.728866 132.732117,203.073872 C103.314884,183.892542 110.685232,166.212455 64.7114128,125.778881 Z" id="hair" fill="#FFFFFF" mask="url(#mask-3)" transform="translate(132.008631, 123.256516) scale(-1, 1) rotate(-2.000000) translate(-132.008631, -123.256516) "></path>
                <path d="M125,194 C125,185 124.693872,140.608332 124.708914,139.857843 C100,143.5 100.5,96.5 125.5,108 C131,111.5 146.5,108 145,79 C172,108 203.346787,74.1761269 206.034851,101.737744 C209.705413,139.373232 206.013207,178.759115 182.623898,178.761562 C180.385394,178.761797 177.844094,178.507942 175,178 C175,183.666667 175,190.333333 175,194 C175,200.666667 181,205.666667 193,209 C172.272321,228.530409 157.605654,238.24342 149,238.139034 C140.394346,238.033526 126.394346,228.320515 107,209 C119,205.666667 125,200.666667 125,194 Z" id="face" fill="url(#linearGradient-4)" mask="url(#mask-3)"></path>
                <path d="M140.257171,177.393562 C153.900453,174.931269 165.613672,170.303709 175.396826,163.510883 C169.153565,177.36849 157.33422,185.327709 139.938791,187.388539 L140.257171,177.393562 Z" id="shade" fill="#DB6F3D" fill-rule="nonzero" mask="url(#mask-3)" transform="translate(157.667808, 175.449711) scale(-1, 1) rotate(-2.000000) translate(-157.667808, -175.449711) "></path>
                <g id="body" mask="url(#mask-3)">
                    <g transform="translate(47.000000, 204.000000)">
                        <mask id="mask-7" fill="white">
                            <use xlink:href="#path-6"></use>
                        </mask>
                        <use id="Mask" stroke="none" fill="url(#linearGradient-5)" fill-rule="nonzero" xlink:href="#path-6"></use>
                        <path d="M23,36 C19.6862915,36 17,33.3137085 17,30 C17,26.6862915 19.6862915,24 23,24 C26.3137085,24 29,26.6862915 29,30 C29,33.3137085 26.3137085,36 23,36 Z M63,36 C59.6862915,36 57,33.3137085 57,30 C57,26.6862915 59.6862915,24 63,24 C66.3137085,24 69,26.6862915 69,30 C69,33.3137085 66.3137085,36 63,36 Z M103,36 C99.6862915,36 97,33.3137085 97,30 C97,26.6862915 99.6862915,24 103,24 C106.313708,24 109,26.6862915 109,30 C109,33.3137085 106.313708,36 103,36 Z M143,36 C139.686292,36 137,33.3137085 137,30 C137,26.6862915 139.686292,24 143,24 C146.313708,24 149,26.6862915 149,30 C149,33.3137085 146.313708,36 143,36 Z M183,36 C179.686292,36 177,33.3137085 177,30 C177,26.6862915 179.686292,24 183,24 C186.313708,24 189,26.6862915 189,30 C189,33.3137085 186.313708,36 183,36 Z M3,16 C-0.313708499,16 -3,13.3137085 -3,10 C-3,6.6862915 -0.313708499,4 3,4 C6.3137085,4 9,6.6862915 9,10 C9,13.3137085 6.3137085,16 3,16 Z M43,16 C39.6862915,16 37,13.3137085 37,10 C37,6.6862915 39.6862915,4 43,4 C46.3137085,4 49,6.6862915 49,10 C49,13.3137085 46.3137085,16 43,16 Z M163,16 C159.686292,16 157,13.3137085 157,10 C157,6.6862915 159.686292,4 163,4 C166.313708,4 169,6.6862915 169,10 C169,13.3137085 166.313708,16 163,16 Z M203,16 C199.686292,16 197,13.3137085 197,10 C197,6.6862915 199.686292,4 203,4 C206.313708,4 209,6.6862915 209,10 C209,13.3137085 206.313708,16 203,16 Z M23,76 C19.6862915,76 17,73.3137085 17,70 C17,66.6862915 19.6862915,64 23,64 C26.3137085,64 29,66.6862915 29,70 C29,73.3137085 26.3137085,76 23,76 Z M63,76 C59.6862915,76 57,73.3137085 57,70 C57,66.6862915 59.6862915,64 63,64 C66.3137085,64 69,66.6862915 69,70 C69,73.3137085 66.3137085,76 63,76 Z M103,76 C99.6862915,76 97,73.3137085 97,70 C97,66.6862915 99.6862915,64 103,64 C106.313708,64 109,66.6862915 109,70 C109,73.3137085 106.313708,76 103,76 Z M143,76 C139.686292,76 137,73.3137085 137,70 C137,66.6862915 139.686292,64 143,64 C146.313708,64 149,66.6862915 149,70 C149,73.3137085 146.313708,76 143,76 Z M183,76 C179.686292,76 177,73.3137085 177,70 C177,66.6862915 179.686292,64 183,64 C186.313708,64 189,66.6862915 189,70 C189,73.3137085 186.313708,76 183,76 Z M3,56 C-0.313708499,56 -3,53.3137085 -3,50 C-3,46.6862915 -0.313708499,44 3,44 C6.3137085,44 9,46.6862915 9,50 C9,53.3137085 6.3137085,56 3,56 Z M43,56 C39.6862915,56 37,53.3137085 37,50 C37,46.6862915 39.6862915,44 43,44 C46.3137085,44 49,46.6862915 49,50 C49,53.3137085 46.3137085,56 43,56 Z M83,56 C79.6862915,56 77,53.3137085 77,50 C77,46.6862915 79.6862915,44 83,44 C86.3137085,44 89,46.6862915 89,50 C89,53.3137085 86.3137085,56 83,56 Z M123,56 C119.686292,56 117,53.3137085 117,50 C117,46.6862915 119.686292,44 123,44 C126.313708,44 129,46.6862915 129,50 C129,53.3137085 126.313708,56 123,56 Z M163,56 C159.686292,56 157,53.3137085 157,50 C157,46.6862915 159.686292,44 163,44 C166.313708,44 169,46.6862915 169,50 C169,53.3137085 166.313708,56 163,56 Z M203,56 C199.686292,56 197,53.3137085 197,50 C197,46.6862915 199.686292,44 203,44 C206.313708,44 209,46.6862915 209,50 C209,53.3137085 206.313708,56 203,56 Z M3,96 C-0.313708499,96 -3,93.3137085 -3,90 C-3,86.6862915 -0.313708499,84 3,84 C6.3137085,84 9,86.6862915 9,90 C9,93.3137085 6.3137085,96 3,96 Z M43,96 C39.6862915,96 37,93.3137085 37,90 C37,86.6862915 39.6862915,84 43,84 C46.3137085,84 49,86.6862915 49,90 C49,93.3137085 46.3137085,96 43,96 Z M83,96 C79.6862915,96 77,93.3137085 77,90 C77,86.6862915 79.6862915,84 83,84 C86.3137085,84 89,86.6862915 89,90 C89,93.3137085 86.3137085,96 83,96 Z M123,96 C119.686292,96 117,93.3137085 117,90 C117,86.6862915 119.686292,84 123,84 C126.313708,84 129,86.6862915 129,90 C129,93.3137085 126.313708,96 123,96 Z M163,96 C159.686292,96 157,93.3137085 157,90 C157,86.6862915 159.686292,84 163,84 C166.313708,84 169,86.6862915 169,90 C169,93.3137085 166.313708,96 163,96 Z M203,96 C199.686292,96 197,93.3137085 197,90 C197,86.6862915 199.686292,84 203,84 C206.313708,84 209,86.6862915 209,90 C209,93.3137085 206.313708,96 203,96 Z" id="Combined-Shape" stroke="none" fill="#FFA789" fill-rule="nonzero" mask="url(#mask-7)"></path>
                    </g>
                </g>
            </g>
        </g>
    </g>
</svg>