
<svg width="300px" height="300px" viewBox="0 0 300 300" version="1.1" xmlns="http://www.w3.org/2000/svg" xmlns:xlink="http://www.w3.org/1999/xlink">
    <defs>
        <linearGradient x1="50%" y1="0%" x2="50%" y2="100%" id="linearGradient-1">
            <stop stop-color="#806A6A" offset="0%"></stop>
            <stop stop-color="#665654" offset="100%"></stop>
        </linearGradient>
        <circle id="path-2" cx="150" cy="150" r="150"></circle>
        <linearGradient x1="50%" y1="100%" x2="50%" y2="0%" id="linearGradient-4">
            <stop stop-color="#FFC9B3" offset="0%"></stop>
            <stop stop-color="#FFD2C2" offset="100%"></stop>
        </linearGradient>
        <linearGradient x1="72.2070562%" y1="18.8043954%" x2="47.4390152%" y2="108.920956%" id="linearGradient-5">
            <stop stop-color="#EB915E" offset="0%"></stop>
            <stop stop-color="#F5A571" offset="100%"></stop>
        </linearGradient>
        <path d="M86,113 C77.4896237,117.666667 69.3194982,120 61.4896237,120 C53.6597491,120 45.8298746,117.666667 38,113 L38,91 C35.0076352,91.5339395 32.7129979,91.4543295 30.3577941,91.4540833 C6.37053713,91.4515761 -2.67518815,56.5108776 2,14 C5,14 12,14 22,0 C19.5,19.5 48.5,16.5 59.5,1 C54,19.5 68.5,32 81,24.5 C105.511348,9.79319148 111.020753,54.6258109 86,55 L86,113 Z" id="path-6"></path>
        <linearGradient x1="81.0579221%" y1="38.2284341%" x2="46.4183066%" y2="72.2336423%" id="linearGradient-8">
            <stop stop-color="#E68349" offset="0%"></stop>
            <stop stop-color="#F09960" offset="100%"></stop>
        </linearGradient>
        <linearGradient x1="50%" y1="0%" x2="50%" y2="100%" id="linearGradient-9">
            <stop stop-color="#130027" offset="0%"></stop>
            <stop stop-color="#130017" offset="100%"></stop>
        </linearGradient>
    </defs>
    <g id="Page-1" stroke="none" stroke-width="1" fill="none" fill-rule="evenodd">
        <g id="Avatars-by-Cecile-Parker" transform="translate(-500.000000, -100.000000)">
            <g id="User-01b" transform="translate(500.000000, 100.000000)">
                <mask id="mask-3" fill="white">
                    <use xlink:href="#path-2"></use>
                </mask>
                <use id="Mask" fill="url(#linearGradient-1)" fill-rule="nonzero" xlink:href="#path-2"></use>
                <path d="M51.2641611,159.5 C43.1522523,132.559488 38.1522523,86.5 72.2641611,55 C98.3339068,30.9263841 168.764161,28.5 193.264161,81 C197.354062,89.7640733 191.764161,103.5 180.764161,103 C176.440822,102.803485 173.764161,116.5 171.264161,125 C174.764161,159.5 205.946392,160.137051 221.764161,186.5 C241.264161,219 217.264161,267 159.764161,267 C102.264161,267 69.301569,219.404149 51.2641611,159.5 Z" id="Combined-Shape" fill="#FFFFFF" mask="url(#mask-3)" transform="translate(136.882081, 152.794268) scale(-1, 1) translate(-136.882081, -152.794268) "></path>
                <path d="M242,238 C246.888889,247.333333 250.555556,269 253,303 L47,303 C49.4444444,269 53.1111111,247.333333 58,238 C65.3333333,224 96,208 150,190 C204,208 234.666667,224 242,238 Z" id="Rectangle" fill="url(#linearGradient-4)" mask="url(#mask-3)"></path>
                <g id="Group-16" mask="url(#mask-3)">
                    <g transform="translate(88.000000, 89.000000)">
                        <mask id="mask-7" fill="white">
                            <use xlink:href="#path-6"></use>
                        </mask>
                        <use id="Mask" stroke="none" fill="url(#linearGradient-5)" fill-rule="evenodd" xlink:href="#path-6"></use>
                        <path d="M38,91 C51.3333333,88.6666667 63,84.1666667 73,77.5 C64.6666667,91.8333333 53,99 38,99 L38,91 Z" id="Path-2" stroke="none" fill="url(#linearGradient-8)" fill-rule="evenodd" opacity="0.600000024" style="mix-blend-mode: multiply;" mask="url(#mask-7)"></path>
                    </g>
                </g>
                <path d="M150.033093,207.974905 C157.260472,207.647816 174,204.107908 174,196.460304 L174,190 C175.834036,190 181.085402,194.332355 183.785918,198 C194.462379,212.5 182.619954,225.5 172.962379,225.5 C160.775724,225.5 152.701869,215.318477 150,210.419699 C147.298131,215.318477 139.224276,225.5 127.037621,225.5 C117.380046,225.5 105.537621,212.5 116.214082,198 C118.914598,194.332355 124.165964,190 126,190 L126,196.460304 C126,204.107906 143.191943,207.647815 150.033097,207.974905 L150.033093,207.974905 Z" id="Combined-Shape" fill="url(#linearGradient-9)" fill-rule="nonzero" mask="url(#mask-3)"></path>
            </g>
        </g>
    </g>
</svg>