
<svg width="300px" height="300px" viewBox="0 0 300 300" version="1.1" xmlns="http://www.w3.org/2000/svg" xmlns:xlink="http://www.w3.org/1999/xlink">
    <defs>
        <linearGradient x1="50%" y1="0%" x2="50%" y2="100%" id="linearGradient-1">
            <stop stop-color="#1D0024" offset="0%"></stop>
            <stop stop-color="#100014" offset="100%"></stop>
        </linearGradient>
        <circle id="path-2" cx="150" cy="150" r="150"></circle>
        <linearGradient x1="50%" y1="0%" x2="50%" y2="100%" id="linearGradient-4">
            <stop stop-color="#806A6A" offset="0%"></stop>
            <stop stop-color="#665654" offset="100%"></stop>
        </linearGradient>
        <path d="M195,48 C199.888889,57.3333333 203.555556,79 206,113 L0,113 C2.44444444,79 6.11111111,57.3333333 11,48 C18.3333333,34 49,18 103,0 C157,18 187.666667,34 195,48 Z" id="path-5"></path>
        <linearGradient x1="50%" y1="100%" x2="50%" y2="0%" id="linearGradient-7">
            <stop stop-color="#E6864E" offset="0%"></stop>
            <stop stop-color="#E67240" offset="100%"></stop>
        </linearGradient>
        <path d="M60.1791485,24.7049654 C64.1791485,7.2049654 45.2120529,-6.22411028 25.6791485,2.9946888 C-20.3208515,24.7049654 7.04341901,55 24.043419,53 C41.043419,51 56.1791485,42.2049654 60.1791485,24.7049654 Z" id="path-8"></path>
        <linearGradient x1="50%" y1="100%" x2="50%" y2="0%" id="linearGradient-10">
            <stop stop-color="#E6864E" offset="0%"></stop>
            <stop stop-color="#E67240" offset="100%"></stop>
        </linearGradient>
        <linearGradient x1="50%" y1="0%" x2="50%" y2="100%" id="linearGradient-11">
            <stop stop-color="#FFD4B3" offset="0%"></stop>
            <stop stop-color="#FFDCC2" offset="100%"></stop>
        </linearGradient>
        <linearGradient x1="50%" y1="100%" x2="50%" y2="0%" id="linearGradient-12">
            <stop stop-color="#E6864E" offset="0%"></stop>
            <stop stop-color="#E57442" offset="100%"></stop>
        </linearGradient>
    </defs>
    <g id="Page-1" stroke="none" stroke-width="1" fill="none" fill-rule="evenodd">
        <g id="User-06a">
            <mask id="mask-3" fill="white">
                <use xlink:href="#path-2"></use>
            </mask>
            <use id="Mask" fill="url(#linearGradient-1)" fill-rule="nonzero" xlink:href="#path-2"></use>
            <g id="body" mask="url(#mask-3)">
                <g transform="translate(47.000000, 195.000000)">
                    <mask id="mask-6" fill="white">
                        <use xlink:href="#path-5"></use>
                    </mask>
                    <use id="Mask" stroke="none" fill="url(#linearGradient-4)" fill-rule="nonzero" xlink:href="#path-5"></use>
                    <path d="M23,50 C19.6862915,50 17,47.3137085 17,44 C17,40.6862915 19.6862915,38 23,38 C26.3137085,38 29,40.6862915 29,44 C29,47.3137085 26.3137085,50 23,50 Z M63,50 C59.6862915,50 57,47.3137085 57,44 C57,40.6862915 59.6862915,38 63,38 C66.3137085,38 69,40.6862915 69,44 C69,47.3137085 66.3137085,50 63,50 Z M103,50 C99.6862915,50 97,47.3137085 97,44 C97,40.6862915 99.6862915,38 103,38 C106.313708,38 109,40.6862915 109,44 C109,47.3137085 106.313708,50 103,50 Z M143,50 C139.686292,50 137,47.3137085 137,44 C137,40.6862915 139.686292,38 143,38 C146.313708,38 149,40.6862915 149,44 C149,47.3137085 146.313708,50 143,50 Z M183,50 C179.686292,50 177,47.3137085 177,44 C177,40.6862915 179.686292,38 183,38 C186.313708,38 189,40.6862915 189,44 C189,47.3137085 186.313708,50 183,50 Z M3,30 C-0.313708499,30 -3,27.3137085 -3,24 C-3,20.6862915 -0.313708499,18 3,18 C6.3137085,18 9,20.6862915 9,24 C9,27.3137085 6.3137085,30 3,30 Z M43,30 C39.6862915,30 37,27.3137085 37,24 C37,20.6862915 39.6862915,18 43,18 C46.3137085,18 49,20.6862915 49,24 C49,27.3137085 46.3137085,30 43,30 Z M163,30 C159.686292,30 157,27.3137085 157,24 C157,20.6862915 159.686292,18 163,18 C166.313708,18 169,20.6862915 169,24 C169,27.3137085 166.313708,30 163,30 Z M203,30 C199.686292,30 197,27.3137085 197,24 C197,20.6862915 199.686292,18 203,18 C206.313708,18 209,20.6862915 209,24 C209,27.3137085 206.313708,30 203,30 Z M23,90 C19.6862915,90 17,87.3137085 17,84 C17,80.6862915 19.6862915,78 23,78 C26.3137085,78 29,80.6862915 29,84 C29,87.3137085 26.3137085,90 23,90 Z M63,90 C59.6862915,90 57,87.3137085 57,84 C57,80.6862915 59.6862915,78 63,78 C66.3137085,78 69,80.6862915 69,84 C69,87.3137085 66.3137085,90 63,90 Z M103,90 C99.6862915,90 97,87.3137085 97,84 C97,80.6862915 99.6862915,78 103,78 C106.313708,78 109,80.6862915 109,84 C109,87.3137085 106.313708,90 103,90 Z M143,90 C139.686292,90 137,87.3137085 137,84 C137,80.6862915 139.686292,78 143,78 C146.313708,78 149,80.6862915 149,84 C149,87.3137085 146.313708,90 143,90 Z M183,90 C179.686292,90 177,87.3137085 177,84 C177,80.6862915 179.686292,78 183,78 C186.313708,78 189,80.6862915 189,84 C189,87.3137085 186.313708,90 183,90 Z M3,70 C-0.313708499,70 -3,67.3137085 -3,64 C-3,60.6862915 -0.313708499,58 3,58 C6.3137085,58 9,60.6862915 9,64 C9,67.3137085 6.3137085,70 3,70 Z M43,70 C39.6862915,70 37,67.3137085 37,64 C37,60.6862915 39.6862915,58 43,58 C46.3137085,58 49,60.6862915 49,64 C49,67.3137085 46.3137085,70 43,70 Z M83,70 C79.6862915,70 77,67.3137085 77,64 C77,60.6862915 79.6862915,58 83,58 C86.3137085,58 89,60.6862915 89,64 C89,67.3137085 86.3137085,70 83,70 Z M123,70 C119.686292,70 117,67.3137085 117,64 C117,60.6862915 119.686292,58 123,58 C126.313708,58 129,60.6862915 129,64 C129,67.3137085 126.313708,70 123,70 Z M163,70 C159.686292,70 157,67.3137085 157,64 C157,60.6862915 159.686292,58 163,58 C166.313708,58 169,60.6862915 169,64 C169,67.3137085 166.313708,70 163,70 Z M203,70 C199.686292,70 197,67.3137085 197,64 C197,60.6862915 199.686292,58 203,58 C206.313708,58 209,60.6862915 209,64 C209,67.3137085 206.313708,70 203,70 Z M3,110 C-0.313708499,110 -3,107.313708 -3,104 C-3,100.686292 -0.313708499,98 3,98 C6.3137085,98 9,100.686292 9,104 C9,107.313708 6.3137085,110 3,110 Z M43,110 C39.6862915,110 37,107.313708 37,104 C37,100.686292 39.6862915,98 43,98 C46.3137085,98 49,100.686292 49,104 C49,107.313708 46.3137085,110 43,110 Z M83,110 C79.6862915,110 77,107.313708 77,104 C77,100.686292 79.6862915,98 83,98 C86.3137085,98 89,100.686292 89,104 C89,107.313708 86.3137085,110 83,110 Z M123,110 C119.686292,110 117,107.313708 117,104 C117,100.686292 119.686292,98 123,98 C126.313708,98 129,100.686292 129,104 C129,107.313708 126.313708,110 123,110 Z M163,110 C159.686292,110 157,107.313708 157,104 C157,100.686292 159.686292,98 163,98 C166.313708,98 169,100.686292 169,104 C169,107.313708 166.313708,110 163,110 Z M203,110 C199.686292,110 197,107.313708 197,104 C197,100.686292 199.686292,98 203,98 C206.313708,98 209,100.686292 209,104 C209,107.313708 206.313708,110 203,110 Z" id="Combined-Shape" stroke="none" fill="#13001E" fill-rule="nonzero" opacity="0.400000006" mask="url(#mask-6)"></path>
                </g>
            </g>
            <g id="bun" mask="url(#mask-3)">
                <g transform="translate(160.000000, 28.000000)">
                    <mask id="mask-9" fill="white">
                        <use xlink:href="#path-8"></use>
                    </mask>
                    <use id="Mask" stroke="none" fill="url(#linearGradient-7)" fill-rule="evenodd" transform="translate(30.521710, 26.547072) scale(-1, 1) translate(-30.521710, -26.547072) " xlink:href="#path-8"></use>
                    <path d="M17.5,27.5 C40.1666667,42.1666667 54.3333333,45.5 60,37.5 C60.8768875,42.5107856 56.8438308,56.6650933 50.5,56.5 C37.8487516,56.170761 26.8487516,46.5040943 17.5,27.5 Z" id="Path-3" stroke="none" fill="#E0713F" fill-rule="evenodd" opacity="0.600000024" style="mix-blend-mode: multiply;" mask="url(#mask-9)"></path>
                </g>
            </g>
            <path d="M172,163 C150.516501,173.320504 147.382731,172.767689 100,134 C28.5,75.5 96,22 168.5,50.5 C247,85 220.70033,139.604744 172,163 Z" id="hair" fill="url(#linearGradient-10)" mask="url(#mask-3)"></path>
            <path d="M174,204 C166.666667,216 133.333333,216 126,204 L126,184 C123.824928,184.063929 121.991595,184.063929 120.5,184 C97.1106912,182.997553 89.2945872,145.373232 92.9651489,107.737744 C95.6532134,80.1761269 119,118 157,91.5 C155.5,120.5 168,117.5 173.5,114 C198.5,102.5 198.708914,149.642157 174,146 L174,204 Z" id="face" fill="url(#linearGradient-11)" mask="url(#mask-3)"></path>
            <path d="M125.903791,183.411241 C134.921575,183.059076 146.301663,178.419883 160.044055,169.493663 C153.146167,182.994873 141.661381,190.632239 125.589695,192.405759 L125.903791,183.411241 Z" id="shade" fill="#FFBB94" fill-rule="nonzero" mask="url(#mask-3)" transform="translate(142.816875, 180.949711) rotate(-2.000000) translate(-142.816875, -180.949711) "></path>
            <path d="M174,201.460304 L174,195 C175.834036,195 181.085402,199.332355 183.785918,203 C194.462379,217.5 182.619954,230.5 172.962379,230.5 C160.775724,230.5 152.701869,220.318477 150,215.419699 C147.298131,220.318477 139.224276,230.5 127.037621,230.5 C117.380046,230.5 105.537621,217.5 116.214082,203 C118.914598,199.332355 124.165964,195 126,195 L126,201.460304 C126,209.107908 142.739528,212.647816 149.966907,212.974905 C156.808057,212.647815 174,209.107906 174,201.460304 Z" id="collar" fill="#FFF9F5" fill-rule="nonzero" mask="url(#mask-3)"></path>
            <path d="M177.394236,71.4278153 C193.394236,111.427815 184.394236,130.927815 171.894236,154.427815 C163.560903,170.094482 164.560903,185.261149 174.894236,199.927815 C162.894236,192.261149 156.894236,179.927815 156.894236,162.927815 C156.894236,137.427815 174.894236,121.427815 159.894236,100.427815 C144.894236,79.4278153 161.394236,31.4278153 177.394236,71.4278153 Z" id="hair" fill="url(#linearGradient-12)" mask="url(#mask-3)" transform="translate(169.992236, 127.963908) scale(-1, 1) translate(-169.992236, -127.963908) "></path>
        </g>
    </g>
</svg>