
<svg width="375px" height="14px" viewBox="0 0 364 14" version="1.1" xmlns="http://www.w3.org/2000/svg" xmlns:xlink="http://www.w3.org/1999/xlink">
    <g id="Page-1" stroke="none" stroke-width="1" fill="none" fill-rule="evenodd">
        <g id="ADD-MEMBERS" transform="translate(-6.000000, -3.000000)">
            <g id="Status-bar/Dark">
                <g id="Status-Bar---Dark">
                    <rect id="Container" fill="#FFFFFF" opacity="0" x="0" y="0" width="375" height="20"></rect>
                    <text id="100%" font-family="Avenir-Book, Avenir" font-size="12" font-weight="normal" line-spacing="16" fill="#000000">
                        <tspan x="311.988" y="13.5">100%</tspan>
                    </text>
                    <path d="M345.5,13.0084887 C345.5,13.8306373 346.170625,14.5 346.996725,14.5 L365.503275,14.5 C366.328986,14.5 367,13.8311887 367,13.0084887 L367,7.49151131 C367,6.66936272 366.329375,6 365.503275,6 L346.996725,6 C346.171014,6 345.5,6.66881131 345.5,7.49151131 L345.5,13.0084887 Z M346.996725,5.5 L365.503275,5.5 C366.606036,5.5 367.5,6.39373694 367.5,7.49151131 L367.5,13.0084887 C367.5,14.10837 366.604089,15 365.503275,15 L346.996725,15 C345.893964,15 345,14.1062631 345,13.0084887 L345,7.49151131 C345,6.39162998 345.895911,5.5 346.996725,5.5 Z M346,7.49594209 L346,13.0040579 C346,13.5533013 346.448895,14 347.002635,14 L365.497365,14 C366.052763,14 366.5,13.5541015 366.5,13.0040579 L366.5,7.49594209 C366.5,6.94669867 366.051105,6.5 365.497365,6.5 L347.002635,6.5 C346.447237,6.5 346,6.94589846 346,7.49594209 Z M368,8.5 L368.75,8.5 C369.164214,8.5 369.5,8.83559471 369.5,9.24225998 L369.5,11.25774 C369.5,11.6676789 369.167101,12 368.75,12 L368,12 L368,8.5 Z" id="Battery" fill="#000000" fill-rule="nonzero"></path>
                    <path d="M304.959629,7.13582167 L300.761012,3 L300.5,3 L300.5,8.7037037 L297.811414,5.7190254 L297,6.57957491 L300.428571,10.0005184 L297,13.4214619 L297.811414,14.281493 L300.5,11.2962963 L300.5,17 L300.842751,17 L305,12.8532919 L302.145598,10.0005184 L304.959629,7.13582167 Z M301.5,8.7037037 L301.5,5.59259259 L303.273376,7.14814815 L301.5,8.7037037 Z M301.5,11.2962963 L303.294189,12.8518519 L301.5,14.4074074 L301.5,11.2962963 Z" id="Bluetooth" fill="#000000" opacity="0.400000006"></path>
                    <path d="M94.9152586,11.4726255 C95.6953437,11.4726255 96.408874,11.7902945 96.963369,12.2479469 L94.9152586,14.5 L92.8694699,12.2457072 C93.423578,11.7891746 94.1367213,11.4726255 94.9152586,11.4726255 Z M94.9961305,7.01368727 C93.0590739,7.01368727 91.2938217,7.72218996 89.9391203,8.88573206 L89,7.85022812 C90.6035083,6.46719204 92.6976654,5.5 94.9957436,5.5 C97.2976912,5.5 99.3945569,6.46980506 101,7.85657404 L100.059332,8.8913314 C98.7042435,7.72480299 96.9358958,7.01368727 94.9961305,7.01368727 Z M94.9690442,10 C93.8082033,10 92.7475816,10.4188304 91.9291887,11.1090419 L90.9347349,10.0126918 C92.0177996,9.08954791 93.4258997,8.48631273 94.9694312,8.48631273 C96.5156714,8.48631273 97.9257062,9.09141435 99.0091577,10.0171713 L98.0131562,11.1120282 C97.1939894,10.4206968 96.1318199,10 94.9690442,10 Z" id="Wifi" fill="#000000"></path>
                    <text id="Carrier" font-family="Avenir-Book, Avenir" font-size="12" font-weight="normal" line-spacing="16" fill="#000000">
                        <tspan x="44" y="13.5">Tele2</tspan>
                    </text>
                    <text id="Time" font-family="Avenir-Book, Avenir" font-size="12" font-weight="normal" line-spacing="16" fill="#000000">
                        <tspan x="165.372" y="14">13:30</tspan>
                    </text>
                    <path d="M39.5,10.25 C39.5,9.00735931 38.4926407,8 37.25,8 C36.0073593,8 35,9.00735931 35,10.25 C35,11.4926407 36.0073593,12.5 37.25,12.5 C38.4926407,12.5 39.5,11.4926407 39.5,10.25 Z M34.5,10.25 C34.5,8.73121694 35.7312169,7.5 37.25,7.5 C38.7687831,7.5 40,8.73121694 40,10.25 C40,11.7687831 38.7687831,13 37.25,13 C35.7312169,13 34.5,11.7687831 34.5,10.25 Z M30.25,13 C28.7312169,13 27.5,11.7687831 27.5,10.25 C27.5,8.73121694 28.7312169,7.5 30.25,7.5 C31.7687831,7.5 33,8.73121694 33,10.25 C33,11.7687831 31.7687831,13 30.25,13 Z M23.25,13 C21.7312169,13 20.5,11.7687831 20.5,10.25 C20.5,8.73121694 21.7312169,7.5 23.25,7.5 C24.7687831,7.5 26,8.73121694 26,10.25 C26,11.7687831 24.7687831,13 23.25,13 Z M16.25,13 C14.7312169,13 13.5,11.7687831 13.5,10.25 C13.5,8.73121694 14.7312169,7.5 16.25,7.5 C17.7687831,7.5 19,8.73121694 19,10.25 C19,11.7687831 17.7687831,13 16.25,13 Z M9.25,13 C7.73121694,13 6.5,11.7687831 6.5,10.25 C6.5,8.73121694 7.73121694,7.5 9.25,7.5 C10.7687831,7.5 12,8.73121694 12,10.25 C12,11.7687831 10.7687831,13 9.25,13 Z" id="Signal" fill="#000000" fill-rule="nonzero"></path>
                </g>
            </g>
        </g>
    </g>
</svg>