<svg width="167px" height="88px" viewBox="0 0 167 88" version="1.1" xmlns="http://www.w3.org/2000/svg" xmlns:xlink="http://www.w3.org/1999/xlink">
    <g id="Page-1" stroke="none" stroke-width="1" fill="none" fill-rule="evenodd">
        <g id="Card---Search" transform="translate(-122.000000, -114.000000)">
            <g id="NoSearchResult" transform="translate(75.000000, 50.000000)">
                <path d="M176,135 L93,135 C89.1340068,135 86,131.865993 86,128 C86,124.134007 89.1340068,121 93,121 L54,121 C50.1340068,121 47,117.865993 47,114 C47,110.134007 50.1340068,107 54,107 L94,107 C97.8659932,107 101,103.865993 101,100 C101,96.1340068 97.8659932,93 94,93 L69,93 C65.1340068,93 62,89.8659932 62,86 C62,82.1340068 65.1340068,79 69,79 L109,79 C105.134007,79 102,75.8659932 102,72 C102,68.1340068 105.134007,65 109,65 L207,65 C210.865993,65 214,68.1340068 214,72 C214,75.8659932 210.865993,79 207,79 L167,79 C170.865993,79 174,82.1340068 174,86 C174,89.8659932 170.865993,93 167,93 L189,93 C192.865993,93 196,96.1340068 196,100 C196,103.865993 192.865993,107 189,107 L178.826087,107 C173.951574,107 170,110.134007 170,114 C170,116.577329 172,118.910662 176,121 C179.865993,121 183,124.134007 183,128 C183,131.865993 179.865993,135 176,135 Z M207,107 C203.134007,107 200,103.865993 200,100 C200,96.1340068 203.134007,93 207,93 C210.865993,93 214,96.1340068 214,100 C214,103.865993 210.865993,107 207,107 Z" id="Background" fill="#F3F7FF" fill-rule="evenodd"></path>
                <g id="Search" stroke-width="1" fill-rule="evenodd" transform="translate(87.000000, 66.000000)">
                    <circle id="Oval" stroke="#75A4FE" stroke-width="2.5" fill="#F3F7FF" cx="33.5" cy="33.5" r="33.5"></circle>
                    <path d="M28.1320801,59.4938965 C29.890814,59.818529 31.6801207,59.9872302 33.5,60 C48.1355459,60 60,48.1355459 60,33.5 C60,18.8644541 48.1355459,7 33.5,7 C29.7403616,7 26.1635859,7.78292845 22.9238202,9.19463803 C17.293841,11.6478697 12.681584,15.9999304 9.89598776,21.4418818 C8.04450607,25.0589434 7,29.157493 7,33.5 C7,37.4400034 7.85985082,41.1791779 9.40213862,44.5401097 C10.5032232,46.9395777 11.9521427,49.1462571 13.6843385,51.0955896" id="Oval" stroke="#75A4FE" stroke-width="2.5" fill="#FFFFFF" stroke-linecap="round"></path>
                    <path d="M16.7974263,54.0747242 C18.9455459,55.8207047 21.3723828,57.2370261 24.0008698,58.2466213" id="Oval" stroke="#75A4FE" stroke-width="2.5" stroke-linecap="round"></path>
                    <path d="M34,15 C32.2773142,15 30.6081757,15.2292632 29.0214315,15.6589426 C20.9428274,17.8465728 15,25.2292755 15,34" id="Oval" stroke="#A4C3FE" stroke-width="2.5" stroke-linecap="round"></path>
                    <path d="M61,60 L67,66" id="Path-4" stroke="#75A4FE" stroke-width="2.5"></path>
                    <path d="M66.0302921,65.0302921 C64.1375776,66.9230066 64.1375776,69.9917031 66.0302921,71.8844176 L77.1155824,82.9697079 C79.0082969,84.8624224 82.0769934,84.8624224 83.9697079,82.9697079 C85.8624224,81.0769934 85.8624224,78.0082969 83.9697079,76.1155824 L72.8844176,65.0302921 C70.9917031,63.1375776 67.9230066,63.1375776 66.0302921,65.0302921 Z" id="Rectangle" stroke="#75A4FE" stroke-width="2.5" fill="#E8F0FE"></path>
                    <path d="M71,67 L82,78" id="Line" stroke="#FFFFFF" stroke-width="2.5" stroke-linecap="round"></path>
                </g>
                <path d="M180.5,92 L163.324219,92 L180.5,92 Z M187.5,92 L185.278809,92 L187.5,92 Z M174.175781,99.7773438 L166,99.7773438 L174.175781,99.7773438 Z" id="Line-8" stroke="#A4C3FE" stroke-width="2.5" stroke-linecap="round" stroke-linejoin="round"></path>
                <path d="M79.5,113 L62.3242188,113 L79.5,113 Z M56.5,113 L52.2788086,113 L56.5,113 Z M84.1757812,121.777344 L76,121.777344 L84.1757812,121.777344 Z" id="Line-8" stroke="#A4C3FE" stroke-width="2.5" stroke-linecap="round" stroke-linejoin="round"></path>
            </g>
        </g>
    </g>
</svg>